<?xml version="1.0" encoding="UTF-8" standalone="no"?>
<svg id="svg4136" xmlns:rdf="http://www.w3.org/1999/02/22-rdf-syntax-ns#" xmlns="http://www.w3.org/2000/svg" height="668" viewBox="0 0 2090 668" width="2090" version="1.1" xmlns:cc="http://creativecommons.org/ns#" xmlns:dc="http://purl.org/dc/elements/1.1/">
<path id="path4146" d="m655.22 665.98c-67.65-17.72-67.23-117.96 0.55-133.13l5.3844-1.205-0.66734-3.5734c-0.36704-1.9654-0.73971-3.6273-0.82815-3.6932-0.97229-0.72429-129-18.465-130.13-18.032-4.6707 1.7923-1.7992 8.0088 5.2342 11.332 65.106 30.758 37.27 132.59-35.27 129.03-74.938-3.6782-89.807-109.87-18.649-133.18l5.351-1.7531-0.69749-5.6361c-0.38362-3.0998-0.80747-5.752-0.94188-5.8936-0.32828-0.34596-10.663-1.6019-105.06-12.767-44.55-5.2693-93.825-11.102-109.5-12.962-15.675-1.8598-42.225-4.9936-59-6.964s-32.075-3.7918-34-4.0474c-1.925-0.25568-15.425-1.8484-30-3.5393-14.575-1.691-27.85-3.2626-29.5-3.4926s-16.725-2.0175-33.5-3.9722-35.675-4.2039-42-4.9983c-6.325-0.79433-14.371-1.7379-17.88-2.0969-24.033-2.4584-17.895-2.952 11.116-0.89395 11.695 0.82969 74.14 5.0974 138.76 9.4838 64.625 4.3864 150.8 10.238 191.5 13.004s113.82 7.7345 162.5 11.041c48.675 3.3065 151.24 10.276 227.92 15.487 76.7 5.21 140.19 9.47 141.11 9.47 0.91888 0 5.8736-3.0066 11.011-6.6814 7.3864-5.2839 9.5148-6.382 10.176-5.25 40.607 69.491 67.098 87.844 126.79 87.844 57.154 0 90.642-22.107 122.94-81.162 5.0654-9.2611 3.3002-9.1066 14.283-1.25 4.9975 3.575 9.8675 6.5 10.822 6.5 0.9548 0 77.947-5.1815 171.09-11.514 93.147-6.3329 218.86-14.878 279.36-18.989 60.5-4.1112 182.84-12.43 271.88-18.486 89.033-6.0558 163.06-10.954 164.5-10.884 3.4977 0.16912-2.4701 0.94962-48.377 6.327-21.45 2.5126-40.575 4.7842-42.5 5.0482-1.925 0.26394-17 2.0586-33.5 3.988-31.599 3.6951-93.305 10.993-252.85 29.904-53.269 6.3139-96.988 11.621-97.154 11.793-0.1651 0.17227-0.6099 2.8171-0.9886 5.8774l-0.6885 5.5642 4.342 1.2994c72.14 21.589 57.814 130.13-17.658 133.79-72.272 3.4975-99.802-95.892-35.75-129.07 7.5071-3.8882 8.9788-6.3647 6.2996-10.6-0.7371-1.1652-129.42 15.902-130.66 17.329-0.06 0.069-0.3586 1.75-0.6644 3.7355l-0.5559 3.61 5.2206 1.1683c77.1 17.27 62.3 135.11-17 135.11-70.088 0-94.873-93.148-34.165-128.39 7.2607-4.2154 6.992-3.4662 4.1619-11.606-0.8722-2.5086-1.7523-3.4349-3.1071-3.2702-1.6577 0.20149-57.672 9.1572-174.39 27.882-18.975 3.0441-34.766 5.8393-35.092 6.2115-0.3258 0.37219-1.8405 4.2767-3.3661 8.6767-6.4888 18.715-16.354 32.755-26.758 38.084l-4.7 2.42h-95.1-95.066l-4.8399-2.4526c-9.8358-4.9842-20.537-20.259-26.657-38.047-1.5136-4.4-3.0186-8.3047-3.3443-8.6771-0.44039-0.5035-198.8-32.799-209.43-34.098-1.3706-0.16749-2.3307 1.0552-3.7492 4.7749-2.6077 6.8381-2.7301 6.5736 4.8453 10.47 69.69 35.841 24.647 145.97-51.538 126.01zm27.324-26.524c25.861-6.6922 38.724-35.297 26.33-58.551-16.968-31.836-63.357-28.081-74.858 6.0596-10.265 30.47 17.514 60.517 48.529 52.491zm-17.318-15.872c-18.113-5.8913-23.624-28.279-10.253-41.65 12.931-12.931 33.048-9.0628 40.788 7.843 8.6394 18.871-10.683 40.264-30.535 33.807zm759.98 16.298c38.388-8.0839 45.086-59.289 10.023-76.618-20.292-10.029-45.513-1.2014-55.151 19.304-14.05 29.89 12.889 64.103 45.129 57.314zm-13.7-15.83c-22.442-5.4635-26.048-36.444-5.4765-47.057 9.6501-4.9783 21.033-3.0471 29 4.92 17.558 17.558 0.5634 48.001-23.523 42.137zm-895.74-6.5924c19.426-5.8463 31.948-28.461 26.827-48.45-9.5015-37.088-58.266-42.729-76.138-8.8084-16.854 31.989 14.047 67.871 49.311 57.258zm-17.427-14.444c-18.768-2.8888-26.983-26.965-14.177-41.55 11.574-13.182 33.342-10.166 41.257 5.7165 9.1326 18.327-6.4923 39.003-27.08 35.834zm1095.2 15.98c27.121-4.4359 42.337-33.742 30.234-58.231-16.916-34.227-66.573-29.218-76.182 7.6836-6.554 25.169 11.575 49.413 38.448 51.416 0.825 0.0615 4.2-0.32978 7.5-0.86953zm-11.174-16.067c-16.083-3.1203-25.019-21.13-17.736-35.745 11.816-23.711 47.41-15.482 47.41 10.959 0 16.247-13.889 27.848-29.674 24.786zm-551.3-45.98c-67.65-7.07-118.19-62.86-119.52-131.93l-0.29689-15.465-17.343-2.7728c-9.54-1.52-29.72-4.77-44.84-7.21-15.125-2.4447-56.467-9.0876-91.871-14.762-35.404-5.6745-63.746-10.443-62.982-10.596 0.76397-0.15329 44.356 2.1968 96.871 5.2224 86.44 4.9802 121.93 6.9892 124.34 7.0388 0.46953 0.01 2.0965-3.3912 3.6154-7.5574 15.733-43.155 52.909-76.341 95.781-85.503 6.127-1.3094 8.2454-2.1696 8.2321-3.3427-0.1-4.71 15.1-280.46 15.7-285.08l0.6763-5.5 0.8172 8c0.4495 4.4 5.5341 58.175 11.299 119.5 13.259 141.04 15.402 163.01 15.988 163.96 0.261 0.42228 3.2494 1.3137 6.641 1.981 41.992 8.2615 81.479 42.883 96.439 84.557 1.777 4.95 3.6162 8.9921 4.0871 8.9824 2.4069-0.0494 37.852-2.056 124.34-7.0388 52.515-3.0256 96.084-5.3757 96.819-5.2224 0.7357 0.1533-47.406 8.1108-106.98 17.683-59.576 9.5726-108.77 17.566-109.32 17.763-0.6013 0.21524-1.0388 6.4327-1.0972 15.595-0.5 78.8-68.9 139.9-147.4 131.7zm-60-168.46c0-10.725-0.2981-19.5-0.66245-19.5-7.6052 0-25.594 22.747-27.876 35.25l-0.68444 3.75h14.611 14.611v-19.5zm176.69 16.724c-2.7-13.35-20.2-36.22-27.8-36.22-1.0682 0-1.3362 37.273-0.2756 38.333 0.3666 0.36667 6.9479 0.66667 14.625 0.66667h13.958l-0.5552-2.7758zm-114.4-4.47c0.3084-2.8875 0.3978-6.375 0.1986-7.75s-0.3997-6.8875-0.4456-12.25l-0.1-9.75h-28.5-28.5v17.5 17.5h28.385 28.385l0.5607-5.25zm80.622-12.25-0.1154-17.5-28.669 0.005-28.669 0.005 0.056 16.745c0.031 9.2096 0.1436 17.082 0.25 17.495 0.1065 0.4125 13.034 0.75 28.728 0.75h28.534l-0.1154-17.5z"/>
</svg>
